                                   ToxickBoy
Description:

VIDEO:

Format : MPEG-4
Duration : 3min 56sec 
Bit rate : 5 500 Kbps 
Maximum bit rate : 13.3 Mbps 
Width : 1 920 pixels 
Height : 1 080 pixels 
Display aspect ratio : 16:9 
Frame rate : 23.976 fps 
Stream size : 155 MiB (97%) 

AUDIO:

Format : AAC 
Duration : 3min 56sec 
Bit rate mode : Variable 
Bit rate : 149 Kbps 
Maximum bit rate : 202 Kbps 
Channel(s) : 2 channels 
Sampling rate : 44.1 KHz 
Stream size : 4.22 MiB (3%) 

HOPE YOU ENJOY!





